<?xml version="1.0" encoding="UTF-8" standalone="no"?>
<!DOCTYPE svg PUBLIC "-//W3C//DTD SVG 1.1//EN" "http://www.w3.org/Graphics/SVG/1.1/DTD/svg11.dtd">
<!-- Created with Vectornator (http://vectornator.io/) -->
<svg height="100%" stroke-miterlimit="10" style="fill-rule:nonzero;clip-rule:evenodd;stroke-linecap:round;stroke-linejoin:round;" version="1.1" viewBox="0 0 700 700" width="100%" xml:space="preserve" xmlns="http://www.w3.org/2000/svg" xmlns:vectornator="http://vectornator.io" xmlns:xlink="http://www.w3.org/1999/xlink">
<defs/>
<g id="Untitled" vectornator:layerName="Untitled">
<g opacity="1">
<path d="M505.1 194.702C499.592 189.194 490.655 189.194 485.147 194.702L349.997 330.042L246.987 227.172L214.659 194.891C209.151 189.383 200.214 189.383 194.706 194.891C189.198 200.399 189.198 209.336 194.706 214.844L227.034 247.125L330.044 349.995L194.894 485.335C189.386 490.843 189.386 499.78 194.894 505.288C197.671 508.019 201.245 509.429 204.87 509.429C208.495 509.429 212.117 508.065 214.847 505.288L349.997 369.948L441.622 461.428L485.341 505.1C488.118 507.831 491.693 509.241 495.318 509.241C498.943 509.241 502.564 507.877 505.294 505.1C510.802 499.592 510.802 490.655 505.294 485.147L461.575 441.475L369.95 349.995L505.1 214.655C510.608 209.147 510.608 200.21 505.1 194.702L505.1 194.702Z" fill="#efefef" fill-rule="nonzero" opacity="1" stroke="none"/>
</g>
</g>
</svg>
