<?xml version="1.0" encoding="UTF-8" standalone="no"?>
<!DOCTYPE svg PUBLIC "-//W3C//DTD SVG 1.1//EN" "http://www.w3.org/Graphics/SVG/1.1/DTD/svg11.dtd">
<!-- Created with Vectornator (http://vectornator.io/) -->
<svg height="100%" stroke-miterlimit="10" style="fill-rule:nonzero;clip-rule:evenodd;stroke-linecap:round;stroke-linejoin:round;" version="1.1" viewBox="0 0 700 700" width="100%" xml:space="preserve" xmlns="http://www.w3.org/2000/svg" xmlns:vectornator="http://vectornator.io" xmlns:xlink="http://www.w3.org/1999/xlink">
<defs/>
<g id="Untitled" vectornator:layerName="Untitled">
<g opacity="1">
<path d="M294 229.64L294 330.36C294 361.325 319.066 386.399 350 386.399C380.93 386.399 406 361.313 406 330.36L406 229.64C406 198.675 380.934 173.601 350 173.601C319.07 173.601 294 198.687 294 229.64ZM282.801 229.64C282.801 192.503 312.879 162.398 350 162.398C387.113 162.398 417.199 192.488 417.199 229.64L417.199 330.36C417.199 367.497 387.121 397.602 350 397.602C312.887 397.602 282.801 367.512 282.801 330.36L282.801 229.64Z" fill="#f0f0f0" fill-rule="evenodd" opacity="1" stroke="none"/>
<path d="M344.4 201.6L344.4 223.998C344.4 227.092 346.908 229.6 350.002 229.6C353.095 229.6 355.603 227.092 355.603 223.998L355.603 201.6C355.603 198.506 353.095 195.998 350.002 195.998C346.908 195.998 344.4 198.506 344.4 201.6Z" fill="#f0f0f0" fill-rule="evenodd" opacity="1" stroke="none"/>
<path d="M350 459.16L380.801 428.363C382.985 426.175 386.531 426.175 388.719 428.363C390.906 430.547 390.906 434.094 388.719 436.281L353.961 471.039C352.867 472.133 351.434 472.68 350 472.68C348.567 472.68 347.133 472.133 346.039 471.039L311.016 436.016C308.829 433.828 308.829 430.282 311.016 428.094C313.204 425.91 316.747 425.91 318.934 428.094L350 459.16Z" fill="#f0f0f0" fill-rule="evenodd" opacity="1" stroke="none"/>
</g>
</g>
</svg>
