<?xml version="1.0" encoding="UTF-8" standalone="no"?>
<!DOCTYPE svg PUBLIC "-//W3C//DTD SVG 1.1//EN" "http://www.w3.org/Graphics/SVG/1.1/DTD/svg11.dtd">
<!-- Created with Vectornator (http://vectornator.io/) -->
<svg height="100%" stroke-miterlimit="10" style="fill-rule:nonzero;clip-rule:evenodd;stroke-linecap:round;stroke-linejoin:round;" version="1.1" viewBox="0 0 700 700" width="100%" xml:space="preserve" xmlns="http://www.w3.org/2000/svg" xmlns:vectornator="http://vectornator.io" xmlns:xlink="http://www.w3.org/1999/xlink">
<defs/>
<g id="Untitled" vectornator:layerName="Untitled">
<g opacity="1">
<path d="M595 192.5L105 192.5C98.7461 192.5 92.969 189.164 89.844 183.75C86.719 178.336 86.719 171.664 89.844 166.25C92.969 160.836 98.7463 157.5 105 157.5L595 157.5C601.254 157.5 607.031 160.836 610.156 166.25C613.281 171.664 613.281 178.336 610.156 183.75C607.031 189.164 601.254 192.5 595 192.5Z" fill="#efefef" fill-rule="nonzero" opacity="1" stroke="none"/>
<path d="M595 367.5L105 367.5C98.7461 367.5 92.969 364.164 89.844 358.75C86.719 353.336 86.719 346.664 89.844 341.25C92.969 335.836 98.7463 332.5 105 332.5L595 332.5C601.254 332.5 607.031 335.836 610.156 341.25C613.281 346.664 613.281 353.336 610.156 358.75C607.031 364.164 601.254 367.5 595 367.5Z" fill="#efefef" fill-rule="nonzero" opacity="1" stroke="none"/>
<path d="M595 542.5L105 542.5C98.7461 542.5 92.969 539.164 89.844 533.75C86.719 528.336 86.719 521.664 89.844 516.25C92.969 510.836 98.7463 507.5 105 507.5L595 507.5C601.254 507.5 607.031 510.836 610.156 516.25C613.281 521.664 613.281 528.336 610.156 533.75C607.031 539.164 601.254 542.5 595 542.5Z" fill="#efefef" fill-rule="nonzero" opacity="1" stroke="none"/>
</g>
</g>
</svg>
